<svg width="145" height="40" viewBox="0 0 145 40" fill="none" xmlns="http://www.w3.org/2000/svg">
<path d="M26.232 28.552L24.3807 27.7952L24.376 27.8069L26.232 28.552ZM22.632 33.688L23.8814 35.2498L23.8913 35.2417L22.632 33.688ZM17.448 36.256L16.9516 34.3186L16.9478 34.3196L17.448 36.256ZM2.496 37H0.496V39H2.496V37ZM2.496 3.736V1.736H0.496V3.736H2.496ZM17.064 4.408L16.6235 6.35888L16.6326 6.36094L16.6417 6.36292L17.064 4.408ZM22.416 6.832L21.2108 8.42808L21.2199 8.43494L21.229 8.4417L22.416 6.832ZM26.184 11.824L24.3464 12.6135L24.3486 12.6184L26.184 11.824ZM18.432 13.408L16.5858 14.1772L16.5892 14.1854L16.5927 14.1935L18.432 13.408ZM15.792 10.288L14.8872 12.0717L14.9027 12.0795L14.9182 12.087L15.792 10.288ZM10.368 9.448V7.448H8.368V9.448H10.368ZM10.368 31.312H8.368V33.312H10.368V31.312ZM15.888 30.376L16.8721 32.1171L16.8816 32.1118L16.8911 32.1063L15.888 30.376ZM18.48 26.992L20.3457 27.7124H20.3457L18.48 26.992ZM25.576 20.2C25.576 23.4184 25.1462 25.9226 24.3807 27.7953L28.0833 29.3087C29.1098 26.7974 29.576 23.7336 29.576 20.2H25.576ZM24.376 27.8069C23.5966 29.7482 22.5785 31.1569 21.3727 32.1343L23.8913 35.2417C25.7255 33.7551 27.1074 31.7398 28.088 29.2971L24.376 27.8069ZM21.3826 32.1263C20.0901 33.1602 18.6204 33.891 16.9516 34.3186L17.9444 38.1934C20.1476 37.629 22.1339 36.6478 23.8814 35.2497L21.3826 32.1263ZM16.9478 34.3196C15.1977 34.7717 13.3741 35 11.472 35V39C13.6979 39 15.8583 38.7323 17.9482 38.1924L16.9478 34.3196ZM11.472 35H2.496V39H11.472V35ZM4.496 37V3.736H0.496V37H4.496ZM2.496 5.736H10.896V1.736H2.496V5.736ZM10.896 5.736C12.8826 5.736 14.7906 5.945 16.6235 6.35888L17.5045 2.45712C15.3694 1.975 13.1654 1.736 10.896 1.736V5.736ZM16.6417 6.36292C18.3698 6.73619 19.8843 7.42641 21.2108 8.42808L23.6212 5.23592C21.8117 3.86958 19.7582 2.94381 17.4863 2.45308L16.6417 6.36292ZM21.229 8.4417C22.4761 9.36126 23.5312 10.7161 24.3464 12.6135L28.0216 11.0345C26.9808 8.6119 25.5239 6.63874 23.603 5.2223L21.229 8.4417ZM24.3486 12.6184C25.1293 14.4222 25.576 16.9153 25.576 20.2H29.576C29.576 16.6047 29.0947 13.5138 28.0194 11.0296L24.3486 12.6184ZM21.416 20.2C21.416 17.1179 21.0865 14.5312 20.2713 12.6225L16.5927 14.1935C17.0895 15.3568 17.416 17.2981 17.416 20.2H21.416ZM20.2782 12.6388C19.5145 10.806 18.3543 9.30908 16.6658 8.48898L14.9182 12.087C15.4697 12.3549 16.0695 12.938 16.5858 14.1772L20.2782 12.6388ZM16.6968 8.50434C15.2791 7.78525 13.7149 7.448 12.048 7.448V11.448C13.1651 11.448 14.0969 11.6707 14.8872 12.0717L16.6968 8.50434ZM12.048 7.448H10.368V11.448H12.048V7.448ZM8.368 9.448V31.312H12.368V9.448H8.368ZM10.368 33.312H12.048V29.312H10.368V33.312ZM12.048 33.312C13.7971 33.312 15.4258 32.9346 16.8721 32.1171L14.9039 28.6349C14.1422 29.0654 13.2109 29.312 12.048 29.312V33.312ZM16.8911 32.1063C18.5098 31.1679 19.616 29.6023 20.3457 27.7124L16.6143 26.2716C16.096 27.6137 15.4743 28.3041 14.8849 28.6457L16.8911 32.1063ZM20.3457 27.7124C21.0988 25.7621 21.416 23.2138 21.416 20.2H17.416C17.416 23.0102 17.1092 24.9899 16.6143 26.2716L20.3457 27.7124ZM54.9893 29.56L56.8548 30.281L56.8562 30.2772L54.9893 29.56ZM50.5013 35.656L51.6823 37.2701L51.6845 37.2684L50.5013 35.656ZM35.8613 35.704L34.695 37.3288L34.7038 37.335L35.8613 35.704ZM31.3733 29.656L33.2388 28.935L31.3733 29.656ZM35.8613 5.08L37.0361 6.69862L37.0445 6.69239L35.8613 5.08ZM50.5013 5.008L49.3375 6.63458L49.3438 6.63901L50.5013 5.008ZM54.9893 11.032L53.1237 11.753L54.9893 11.032ZM47.2132 11.416L45.3824 12.2209L47.2132 11.416ZM39.1493 11.44L40.9801 12.245L40.9826 12.2392L39.1493 11.44ZM39.1733 29.272L40.9983 28.4539L39.1733 29.272ZM47.2373 29.248L45.3957 28.4677L45.3925 28.4754L47.2373 29.248ZM54.5013 20.344C54.5013 23.6783 54.0233 26.4973 53.1223 28.8428L56.8562 30.2772C57.9712 27.3747 58.5013 24.0497 58.5013 20.344H54.5013ZM53.1237 28.839C52.2341 31.1406 50.9537 32.8432 49.318 34.0436L51.6845 37.2684C54.0168 35.5568 55.7284 33.1954 56.8548 30.281L53.1237 28.839ZM49.3202 34.0419C47.7575 35.1854 45.7533 35.816 43.1813 35.816V39.816C46.4332 39.816 49.309 39.0066 51.6823 37.2701L49.3202 34.0419ZM43.1813 35.816C40.6191 35.816 38.604 35.198 37.0187 34.073L34.7038 37.335C37.0865 39.026 39.9514 39.816 43.1813 39.816V35.816ZM37.0274 34.0792C35.4035 32.9136 34.1274 31.2341 33.2388 28.935L29.5077 30.377C30.6351 33.2939 32.351 35.6464 34.6951 37.3288L37.0274 34.0792ZM33.2388 28.935C32.3411 26.6126 31.8612 23.765 31.8612 20.344H27.8612C27.8612 24.123 28.3894 27.4834 29.5077 30.377L33.2388 28.935ZM31.8612 20.344C31.8612 17.0093 32.3394 14.2 33.2388 11.873L29.5077 10.431C28.3911 13.32 27.8612 16.6387 27.8612 20.344H31.8612ZM33.2388 11.873C34.1279 9.57261 35.4061 7.8816 37.036 6.6986L34.6865 3.4614C32.3484 5.1584 30.6346 7.51539 29.5077 10.431L33.2388 11.873ZM37.0445 6.69239C38.6277 5.53057 40.6332 4.896 43.1813 4.896V0.895996C39.9373 0.895996 37.0628 1.71742 34.678 3.4676L37.0445 6.69239ZM43.1813 4.896C45.7626 4.896 47.7733 5.51545 49.3375 6.63457L51.665 3.38143C49.2932 1.68455 46.4239 0.895996 43.1813 0.895996V4.896ZM49.3438 6.63901C50.9617 7.78724 52.2356 9.4551 53.1237 11.753L56.8548 10.311C55.7269 7.3929 54.0088 5.04476 51.6587 3.37698L49.3438 6.63901ZM53.1237 11.753C54.0214 14.0754 54.5013 16.923 54.5013 20.344H58.5013C58.5013 16.565 57.9731 13.2046 56.8548 10.311L53.1237 11.753ZM50.4373 20.344C50.4373 16.1963 50.0362 12.8676 49.0441 10.611L45.3824 12.2209C46.0223 13.6764 46.4373 16.2997 46.4373 20.344H50.4373ZM49.0441 10.611C48.5228 9.4254 47.7724 8.40219 46.7296 7.68221C45.6764 6.955 44.4619 6.632 43.1813 6.632V10.632C43.7726 10.632 44.1661 10.773 44.4569 10.9738C44.7581 11.1818 45.0877 11.5506 45.3824 12.2209L49.0441 10.611ZM43.1813 6.632C41.897 6.632 40.6801 6.95888 39.6263 7.69279C38.5839 8.41871 37.8354 9.44896 37.3159 10.6408L40.9826 12.2392C41.2791 11.559 41.6106 11.1853 41.9122 10.9752C42.2024 10.7731 42.5935 10.632 43.1813 10.632V6.632ZM37.3184 10.635C36.3266 12.891 35.9253 16.211 35.9253 20.344H39.9253C39.9253 16.317 40.3399 13.701 40.9801 12.2449L37.3184 10.635ZM35.9253 20.344C35.9253 24.4934 36.3343 27.8282 37.3482 30.0901L40.9983 28.4539C40.3482 27.0038 39.9253 24.3866 39.9253 20.344H35.9253ZM37.3482 30.0901C37.8761 31.2676 38.6252 32.285 39.6583 33.0026C40.7041 33.7291 41.9089 34.056 43.1813 34.056V30.056C42.6136 30.056 42.2304 29.9189 41.9402 29.7174C41.6373 29.507 41.3024 29.1324 40.9983 28.4539L37.3482 30.0901ZM43.1813 34.056C44.478 34.056 45.7099 33.7349 46.7737 32.9984C47.8298 32.2672 48.5772 31.226 49.082 30.0206L45.3925 28.4754C45.1133 29.142 44.7927 29.5048 44.4968 29.7096C44.2086 29.9091 43.8045 30.056 43.1813 30.056V34.056ZM49.0788 30.0283C50.0423 27.7543 50.4373 24.4499 50.4373 20.344H46.4373C46.4373 24.3341 46.0322 26.9657 45.3957 28.4677L49.0788 30.0283ZM86.5065 3.736L88.493 3.96819L88.7539 1.736H86.5065V3.736ZM82.6185 37V39H84.3983L84.605 37.2322L82.6185 37ZM74.4345 37L72.4448 37.2028L72.628 39H74.4345V37ZM72.0105 13.216L74.0002 13.0132L70.0229 12.9934L72.0105 13.216ZM69.3465 37V39H71.135L71.3341 37.2226L69.3465 37ZM61.0185 37L59.0301 37.2152L59.2233 39H61.0185V37ZM57.4185 3.736V1.736H55.1904L55.4301 3.95119L57.4185 3.736ZM64.7865 3.736L66.7847 3.65108L66.7033 1.736H64.7865V3.736ZM65.9145 30.28L63.9163 30.3649L67.8999 30.5214L65.9145 30.28ZM68.6745 7.576V5.576H66.9029L66.6891 7.33465L68.6745 7.576ZM75.4425 7.576L77.4298 7.35122L77.229 5.576H75.4425V7.576ZM78.0105 30.28L76.0232 30.5048L80.0066 30.4045L78.0105 30.28ZM79.6665 3.736V1.736H77.7874L77.6704 3.61147L79.6665 3.736ZM84.52 3.50381L80.632 36.7678L84.605 37.2322L88.493 3.96819L84.52 3.50381ZM82.6185 35H74.4345V39H82.6185V35ZM76.4242 36.7972L74.0002 13.0132L70.0208 13.4188L72.4448 37.2028L76.4242 36.7972ZM70.0229 12.9934L67.3589 36.7774L71.3341 37.2226L73.9981 13.4386L70.0229 12.9934ZM69.3465 35H61.0185V39H69.3465V35ZM63.0069 36.7848L59.4069 3.52081L55.4301 3.95119L59.0301 37.2152L63.0069 36.7848ZM57.4185 5.736H64.7865V1.736H57.4185V5.736ZM62.7883 3.82091L63.9163 30.3649L67.9127 30.1951L66.7847 3.65108L62.7883 3.82091ZM67.8999 30.5214L70.6599 7.81735L66.6891 7.33465L63.9291 30.0386L67.8999 30.5214ZM68.6745 9.576H75.4425V5.576H68.6745V9.576ZM73.4552 7.80078L76.0232 30.5048L79.9978 30.0552L77.4298 7.35122L73.4552 7.80078ZM80.0066 30.4045L81.6626 3.86053L77.6704 3.61147L76.0144 30.1555L80.0066 30.4045ZM79.6665 5.736H86.5065V1.736H79.6665V5.736ZM98.6797 9.352V7.352H96.6797V9.352H98.6797ZM98.6797 17.344H96.6797V19.344H98.6797V17.344ZM110.2 17.344H112.2V15.344H110.2V17.344ZM110.2 22.864V24.864H112.2V22.864H110.2ZM98.6797 22.864V20.864H96.6797V22.864H98.6797ZM98.6797 31.36H96.6797V33.36H98.6797V31.36ZM112.576 31.36H114.576V29.36H112.576V31.36ZM112.576 37V39H114.576V37H112.576ZM90.8077 37H88.8077V39H90.8077V37ZM90.8077 3.736V1.736H88.8077V3.736H90.8077ZM112.552 3.736L114.532 4.01529L114.854 1.736H112.552V3.736ZM111.76 9.352V11.352H113.497L113.74 9.63129L111.76 9.352ZM96.6797 9.352V17.344H100.68V9.352H96.6797ZM98.6797 19.344H110.2V15.344H98.6797V19.344ZM108.2 17.344V22.864H112.2V17.344H108.2ZM110.2 20.864H98.6797V24.864H110.2V20.864ZM96.6797 22.864V31.36H100.68V22.864H96.6797ZM98.6797 33.36H112.576V29.36H98.6797V33.36ZM110.576 31.36V37H114.576V31.36H110.576ZM112.576 35H90.8077V39H112.576V35ZM92.8077 37V3.736H88.8077V37H92.8077ZM90.8077 5.736H112.552V1.736H90.8077V5.736ZM110.571 3.45671L109.779 9.07271L113.74 9.63129L114.532 4.01529L110.571 3.45671ZM111.76 7.352H98.6797V11.352H111.76V7.352ZM119.589 37H117.589V39H119.589V37ZM119.589 3.736V1.736H117.589V3.736H119.589ZM127.461 3.736H129.461V1.736H127.461V3.736ZM127.461 30.784H125.461V32.784H127.461V30.784ZM141.885 30.784L143.868 31.0443L144.165 28.784H141.885V30.784ZM141.069 37V39H142.824L143.052 37.2603L141.069 37ZM121.589 37V3.736H117.589V37H121.589ZM119.589 5.736H127.461V1.736H119.589V5.736ZM125.461 3.736V30.784H129.461V3.736H125.461ZM127.461 32.784H141.885V28.784H127.461V32.784ZM139.902 30.5237L139.086 36.7397L143.052 37.2603L143.868 31.0443L139.902 30.5237ZM141.069 35H119.589V39H141.069V35Z" fill="black"/>
</svg>
