<svg width="700" height="700" viewBox="0 0 700 700" fill="none" xmlns="http://www.w3.org/2000/svg">
<rect x="8" y="8" width="684" height="684" rx="92" fill="#18FF90"/>
<path d="M560 130C560 113.431 546.569 100 530 100H504.669C496.434 93.7256 486.152 90 475 90C463.848 90 453.566 93.7256 445.331 100H420C403.431 100 390 113.431 390 130V420C390 436.569 403.431 450 420 450H445.331C453.566 456.274 463.848 460 475 460C486.152 460 496.434 456.274 504.669 450H530C546.569 450 560 436.569 560 420V130ZM453.091 120H496.909C501.327 125.089 504 131.732 504 139V411C504 418.268 501.327 424.911 496.91 430H453.091C448.673 424.911 446 418.268 446 411V139C446 131.732 448.673 125.089 453.091 120Z" fill="#FFF618" stroke="#282846" stroke-width="20"/>
<path d="M290 130C290 113.431 276.569 100 260 100H225.802C208.428 93.5339 189.627 90 170 90C153.431 90 140 103.431 140 120V430C140 446.569 153.431 460 170 460C189.627 460 208.428 456.466 225.802 450H260C276.569 450 290 436.569 290 420V405.833C314.895 377.628 330 340.578 330 300V250C330 209.422 314.895 172.372 290 144.167V130ZM222.062 120C240.234 127.284 256.524 138.268 270 152.02V397.98C256.524 411.732 240.234 422.716 222.062 430H206C200.477 430 196 425.523 196 420V130C196 124.477 200.477 120 206 120H222.062Z" fill="#FFF618" stroke="#282846" stroke-width="20"/>
<path d="M412.249 564.03L386.16 552.687L367.702 517.985C360.161 503.808 339.83 503.851 332.348 518.059L314.286 552.358L287.839 563.958L278.821 568.28L287.839 563.958L260.56 507.035C255.571 496.624 245.05 490 233.506 490H225.18C210.313 490 200.643 505.646 207.292 518.944L247.292 598.944C250.68 605.72 257.605 610 265.18 610H294.464C301.888 610 308.701 605.888 312.16 599.319L328.724 567.865L335.052 565.09C339.698 563.052 344.716 562 349.789 562C354.823 562 359.802 563.036 364.418 565.043L371.782 568.244L388.35 599.392C391.822 605.92 398.613 610 406.008 610H434.847C442.394 610 449.298 605.752 452.7 599.016L493.1 519.016C499.818 505.713 490.15 490 475.247 490H467.433C456.013 490 445.584 496.483 440.53 506.724L412.249 564.03Z" fill="#FFF618" stroke="#282846" stroke-width="20"/>
<rect x="8" y="8" width="684" height="684" rx="92" stroke="#282846" stroke-width="16"/>
</svg>
