<svg width="578" height="517" viewBox="0 0 578 517" fill="none" xmlns="http://www.w3.org/2000/svg">
<path d="M94.8916 376.914L72.5432 302.011L111.716 370.597L94.8916 376.914Z" fill="url(#paint0_linear)"/>
<path d="M64.0603 304.445C67.4924 298.096 75.4132 295.731 81.7624 299.163C88.1116 302.59 90.482 310.516 87.0499 316.87C83.623 323.214 75.6917 325.579 69.3478 322.147C62.9986 318.715 60.6334 310.789 64.0603 304.445Z" fill="#F7931E"/>
<path d="M104.578 291.578L102.529 326.536C90.4977 328.139 78.9504 333.242 69.4791 341.61L38.963 323.456L63.829 347.36C63.0353 348.269 62.2101 349.142 61.4638 350.103C58.1367 354.392 55.5298 358.991 53.4747 363.748L29.4445 353.951L51.3408 369.456C49.0071 376.799 48.0716 384.414 48.5026 391.951L7.62695 400.529L49.7587 401.46C50.647 405.596 51.9295 409.654 53.6429 413.548L24.5406 434.893L57.5008 420.812C60.4336 425.632 64.0444 430.126 68.3543 434.11L41.1968 483.752L78.6665 441.846C90.5923 449.015 104.174 451.775 117.319 450.377L134.395 503.031L129.712 447.807C139.1 444.821 147.835 439.57 155.093 432.217L184.558 456.542L163.508 421.674C168.386 413.963 171.329 405.507 172.506 396.903L227.799 399.872L172.922 383.941C172.107 372.615 168.27 361.551 161.49 352.08L198.308 310.032L153.023 342.53C151.735 341.347 150.426 340.175 149.018 339.082C146.952 337.479 144.797 336.075 142.6 334.767L152.218 300.461L135.389 331.108C127.41 327.671 118.943 325.984 110.502 326.026L104.578 291.578Z" fill="url(#paint1_linear)"/>
<path d="M69.479 341.61L38.9629 323.456L63.8288 347.36C63.0352 348.269 62.21 349.142 61.4637 350.104C58.1366 354.392 55.5297 358.991 53.4746 363.748L29.4443 353.951L51.3407 369.456C50.7993 371.154 50.3473 372.867 49.9531 374.591C78.1513 367.963 108.142 367.58 136.86 370.018C148.46 371.001 159.976 372.652 171.481 374.423C169.673 366.486 166.352 358.871 161.49 352.08L198.308 310.032L153.023 342.53C151.735 341.347 150.426 340.175 149.017 339.082C146.952 337.479 144.797 336.075 142.6 334.767L152.218 300.461L135.389 331.109C127.41 327.671 118.943 325.984 110.502 326.026L104.573 291.578L102.523 326.536C90.4976 328.139 78.9502 333.248 69.479 341.61Z" fill="url(#paint2_linear)"/>
<path d="M115.915 421.106C121.318 414.147 131.347 412.891 138.3 418.289C145.265 423.698 146.531 433.726 141.128 440.685C135.725 447.644 125.691 448.905 118.727 443.497C111.768 438.099 110.507 428.065 115.915 421.106Z" fill="#F7931E"/>
<path d="M153.601 377.356C157.653 372.137 165.164 371.191 170.383 375.243C175.602 379.295 176.554 386.811 172.501 392.03C168.454 397.244 160.933 398.185 155.714 394.133C150.494 390.08 149.548 382.57 153.601 377.356Z" fill="#F7931E"/>
<path d="M68.6643 406.353C74.0727 399.389 84.0958 398.127 91.0547 403.53C98.0189 408.939 99.2803 418.967 93.8719 425.926C88.4688 432.885 78.4404 434.152 71.4763 428.738C64.5174 423.34 63.2612 413.312 68.6643 406.353Z" fill="#F7931E"/>
<path d="M89.9247 357.693C95.3331 350.729 105.361 349.473 112.315 354.876C119.274 360.279 120.546 370.313 115.138 377.277C109.734 384.236 99.6955 385.492 92.7366 380.089C85.783 374.68 84.5216 364.652 89.9247 357.693Z" fill="#F7931E"/>
<path d="M33.9434 467.953C39.3466 460.994 49.3749 459.727 56.3338 465.13C63.298 470.539 64.5489 480.562 59.1458 487.526C53.7426 494.485 43.7195 495.752 36.7554 490.343C29.7965 484.94 28.535 474.912 33.9434 467.953Z" fill="#F7931E"/>
<path d="M120.062 489.36C126.149 482.985 136.256 482.759 142.626 488.835C148.996 494.926 149.238 505.034 143.147 511.404C137.06 517.779 126.958 518.005 120.577 511.914C114.202 505.832 113.976 495.73 120.062 489.36Z" fill="#F7931E"/>
<path d="M144.534 296.146C151.462 294.122 158.72 298.106 160.728 305.034C162.746 311.961 158.773 319.209 151.84 321.227C144.918 323.24 137.665 319.262 135.652 312.334C133.628 305.407 137.612 298.159 144.534 296.146Z" fill="#F7931E"/>
<path d="M177.095 450.897C180.569 446.419 187.018 445.61 191.491 449.084C195.964 452.558 196.773 459.002 193.294 463.475C189.82 467.947 183.381 468.762 178.903 465.288C174.435 461.814 173.621 455.37 177.095 450.897Z" fill="#F7931E"/>
<path d="M206.576 392.955C211.564 386.533 220.804 385.361 227.221 390.348C233.639 395.336 234.811 404.587 229.823 411.01C224.84 417.427 215.584 418.589 209.162 413.601C202.744 408.613 201.593 399.373 206.576 392.955Z" fill="#F7931E"/>
<path d="M176.827 311.993C181.815 305.57 191.06 304.403 197.477 309.391C203.895 314.379 205.067 323.629 200.079 330.052C195.091 336.475 185.835 337.636 179.418 332.648C173 327.666 171.839 318.421 176.827 311.993Z" fill="#F7931E"/>
<path d="M2.09755 393.817C5.47188 389.471 11.7212 388.682 16.0679 392.057C20.4093 395.431 21.1977 401.686 17.8234 406.032C14.4491 410.379 8.18921 411.162 3.84778 407.793C-0.498897 404.413 -1.27678 398.164 2.09755 393.817Z" fill="#F7931E"/>
<path d="M33.1498 319.924C36.0616 316.176 41.4437 315.493 45.1912 318.4C48.9335 321.306 49.6115 326.699 46.6997 330.446C43.7932 334.188 38.4005 334.861 34.6583 331.96C30.916 329.053 30.2485 323.666 33.1498 319.924Z" fill="#F7931E"/>
<path d="M97.7983 286.322C100.705 282.575 106.097 281.897 109.845 284.803C113.587 287.71 114.265 293.103 111.359 296.85C108.452 300.592 103.054 301.27 99.3172 298.364C95.5645 295.457 94.8917 290.065 97.7983 286.322Z" fill="#F7931E"/>
<path d="M20.6459 424.602C23.7574 417.932 31.6834 415.025 38.3532 418.131C45.0335 421.238 47.9296 429.164 44.8233 435.844C41.7223 442.519 33.791 445.415 27.116 442.314C20.4409 439.203 17.5448 431.277 20.6459 424.602Z" fill="#F7931E"/>
<path d="M34.8368 346.987C40.7025 346.309 46.0005 350.503 46.6785 356.353C47.3565 362.213 43.1675 367.511 37.3124 368.2C31.452 368.878 26.1592 364.678 25.4707 358.823C24.7874 352.968 28.9764 347.665 34.8368 346.987Z" fill="#F7931E"/>
<g opacity="0.26">
<path opacity="0.26" d="M85.5991 440.301C104.715 443.597 128.088 439.129 143.504 425.374C155.314 414.836 163.75 398.558 162.672 382.496C161.795 369.472 154.773 358.334 145.995 349.772C140.55 344.459 134.175 339.644 127.384 336.265C122.685 333.926 119.022 341.794 123.721 344.133C125.124 344.832 126.475 345.641 127.81 346.466C128.593 346.95 129.055 347.255 129.118 347.297C129.912 347.828 130.7 348.369 131.478 348.926C133.218 350.172 134.91 351.486 136.55 352.868C144.355 359.454 151.272 367.884 153.711 378.365C156.87 391.915 150.473 406.605 141.002 416.465C132.193 425.637 120.015 430.231 108.1 431.818C100.847 432.785 94.2188 433.016 87.1653 431.802C81.9777 430.903 80.3956 439.402 85.5991 440.301Z" fill="url(#paint3_linear)"/>
</g>
<path d="M226.645 407.949C227.753 405.568 226.996 402.866 224.954 401.916C222.912 400.966 220.358 402.126 219.25 404.508C218.141 406.889 218.898 409.59 220.941 410.541C222.983 411.491 225.537 410.331 226.645 407.949Z" fill="#FFBB78"/>
<path d="M196.105 327.04C197.213 324.658 196.456 321.957 194.414 321.006C192.372 320.056 189.818 321.216 188.709 323.598C187.601 325.98 188.358 328.681 190.4 329.631C192.442 330.582 194.996 329.421 196.105 327.04Z" fill="#FFBB78"/>
<path d="M169.613 390.4C170.721 388.019 169.964 385.318 167.922 384.367C165.88 383.417 163.326 384.577 162.218 386.959C161.109 389.341 161.866 392.042 163.908 392.992C165.951 393.942 168.505 392.782 169.613 390.4Z" fill="#FFBB78"/>
<path d="M155.908 313.577C157.017 311.196 156.26 308.494 154.217 307.544C152.175 306.594 149.621 307.754 148.513 310.136C147.405 312.517 148.162 315.219 150.204 316.169C152.246 317.119 154.8 315.959 155.908 313.577Z" fill="#FFBB78"/>
<path d="M134.575 441.536C135.683 439.154 134.926 436.453 132.884 435.503C130.842 434.552 128.288 435.712 127.179 438.094C126.071 440.476 126.828 443.177 128.87 444.127C130.912 445.078 133.466 443.917 134.575 441.536Z" fill="#FFBB78"/>
<path d="M89.6544 422.126C90.7627 419.745 90.0057 417.043 87.9635 416.093C85.9214 415.143 83.3674 416.303 82.259 418.685C81.1507 421.066 81.9077 423.767 83.9499 424.718C85.9921 425.668 88.5461 424.508 89.6544 422.126Z" fill="#FFBB78"/>
<path d="M191.692 462.123C192.801 459.741 192.044 457.04 190.002 456.09C187.959 455.14 185.405 456.3 184.297 458.682C183.189 461.063 183.946 463.764 185.988 464.715C188.03 465.665 190.584 464.505 191.692 462.123Z" fill="#FFBB78"/>
<path d="M43.2463 360.814C43.8929 359.425 43.4528 357.85 42.2633 357.296C41.0738 356.743 39.5853 357.42 38.9387 358.81C38.292 360.199 38.7321 361.774 39.9216 362.328C41.1111 362.882 42.5996 362.204 43.2463 360.814Z" fill="#FFBB78"/>
<path d="M41.4064 327.732C42.053 326.343 41.6129 324.767 40.4234 324.214C39.2339 323.66 37.7454 324.338 37.0988 325.728C36.4522 327.117 36.8923 328.692 38.0818 329.246C39.2713 329.799 40.7598 329.122 41.4064 327.732Z" fill="#FFBB78"/>
<path d="M108.561 294.539C109.208 293.15 108.768 291.575 107.578 291.021C106.389 290.467 104.9 291.145 104.254 292.535C103.607 293.924 104.047 295.499 105.237 296.053C106.426 296.606 107.915 295.929 108.561 294.539Z" fill="#FFBB78"/>
<path d="M35.6522 436.711C36.7605 434.329 36.0035 431.628 33.9613 430.677C31.9192 429.727 29.3652 430.887 28.2568 433.269C27.1485 435.651 27.9055 438.352 29.9477 439.302C31.9899 440.253 34.5439 439.092 35.6522 436.711Z" fill="#FFBB78"/>
<path d="M14.9263 402.338C15.6648 400.751 15.1605 398.951 13.8 398.318C12.4394 397.685 10.7377 398.458 9.99926 400.045C9.26077 401.632 9.76509 403.431 11.1257 404.064C12.4862 404.698 14.1879 403.924 14.9263 402.338Z" fill="#FFBB78"/>
<path d="M82.1556 317.471C82.894 315.884 82.3897 314.084 81.0292 313.451C79.6686 312.818 77.967 313.591 77.2285 315.178C76.49 316.765 76.9943 318.564 78.3549 319.198C79.7155 319.831 81.4171 319.058 82.1556 317.471Z" fill="#FFBB78"/>
<path d="M108.199 379.05C108.938 377.463 108.433 375.664 107.073 375.031C105.712 374.397 104.01 375.171 103.272 376.757C102.533 378.344 103.038 380.144 104.398 380.777C105.759 381.41 107.461 380.637 108.199 379.05Z" fill="#FFBB78"/>
<path d="M55.8546 485.083C56.9629 482.701 56.2059 480 54.1637 479.049C52.1216 478.099 49.5676 479.259 48.4592 481.641C47.3509 484.023 48.1079 486.724 50.1501 487.674C52.1923 488.625 54.7463 487.464 55.8546 485.083Z" fill="#FFBB78"/>
<path d="M140.389 507.939C141.497 505.557 140.74 502.856 138.698 501.906C136.656 500.955 134.102 502.116 132.994 504.497C131.885 506.879 132.642 509.58 134.685 510.531C136.727 511.481 139.281 510.321 140.389 507.939Z" fill="#FFBB78"/>
<path d="M436.476 212.286L542.085 291.424L420.009 237.773L436.476 212.286Z" fill="url(#paint4_linear)"/>
<path d="M551.136 279.593C552.867 291.657 544.498 302.825 532.44 304.555C520.382 306.286 509.202 297.923 507.471 285.853C505.741 273.801 514.123 262.627 526.181 260.903C538.238 259.166 549.406 267.535 551.136 279.593Z" fill="#BD278F"/>
<path d="M509.114 337.767L476.755 288.291C491.46 274.028 501.995 255.49 506.43 234.627L566.062 228.576L508.312 221.148C508.476 219.121 508.716 217.106 508.76 215.047C508.969 205.888 507.87 197.026 505.88 188.505L548.319 177.635L503.031 178.614C498.812 166.31 492.432 155.035 484.265 145.251L531.082 92.5223L473.003 133.61C467.641 128.892 461.824 124.679 455.583 121.116L473.603 62.9177L443.051 115.147C434.227 111.56 424.816 109.096 414.963 108.016L401.9 13.385L393.203 107.89C369.82 110.151 348.629 120.068 332.206 135.17L256.12 80.9192L317.982 151.119C308.255 164.604 301.679 180.503 299.229 197.778L234.815 194.405L298.407 220.548C299.544 235.903 304.048 250.336 311.097 263.19L233.115 314.744L323.565 281.191C336.053 295.738 352.387 306.88 371.096 312.912L363.421 406.956L392.18 317.358C395.11 317.668 398.066 317.94 401.079 318.009C405.494 318.11 409.827 317.845 414.116 317.409L435.56 373.605L427.583 315.122C441.858 311.769 455.046 305.541 466.447 297.001L509.114 337.767Z" fill="url(#paint5_linear)"/>
<path d="M506.43 234.627L566.062 228.576L508.312 221.148C508.476 219.12 508.716 217.106 508.76 215.046C508.969 205.888 507.87 197.026 505.88 188.505L548.319 177.635L503.031 178.614C502.059 175.771 500.953 172.986 499.747 170.257C468.159 207.593 427.867 238.259 386.463 263.815C369.738 274.136 352.463 283.478 335.08 292.636C345.508 301.587 357.674 308.579 371.089 312.899L363.415 406.943L392.173 317.346C395.104 317.655 398.06 317.927 401.073 317.996C405.488 318.097 409.821 317.832 414.11 317.396L435.554 373.593L427.576 315.11C441.851 311.756 455.04 305.528 466.441 296.988L509.108 337.754L476.749 288.278C491.46 274.028 501.995 255.49 506.43 234.627Z" fill="url(#paint6_linear)"/>
<path d="M363.548 173.479C363.213 188.354 350.877 200.14 336.021 199.805C321.133 199.47 309.341 187.141 309.676 172.266C310.01 157.391 322.346 145.598 337.234 145.933C352.09 146.268 363.882 158.604 363.548 173.479Z" fill="#BD278F"/>
<path d="M356.41 270.706C356.158 281.861 346.923 290.691 335.775 290.438C324.626 290.186 315.777 280.945 316.03 269.796C316.283 258.654 325.536 249.824 336.684 250.071C347.833 250.323 356.657 259.564 356.41 270.706Z" fill="#BD278F"/>
<path d="M442.458 146.003C442.123 160.884 429.793 172.67 414.931 172.336C400.043 172.001 388.264 159.671 388.598 144.79C388.933 129.915 401.263 118.129 416.144 118.464C431.006 118.792 442.792 131.128 442.458 146.003Z" fill="#BD278F"/>
<path d="M462.537 233.37C462.203 248.252 449.867 260.031 434.998 259.697C420.123 259.362 408.318 247.032 408.653 232.151C408.987 217.276 421.336 205.49 436.211 205.825C451.08 206.159 462.872 218.495 462.537 233.37Z" fill="#BD278F"/>
<path d="M427.639 27.5462C427.305 42.4211 414.975 54.2137 400.1 53.879C385.213 53.5442 373.439 41.2084 373.774 26.3334C374.109 11.4585 386.425 -0.327807 401.313 0.00695827C416.188 0.341724 427.974 12.6712 427.639 27.5462Z" fill="#BD278F"/>
<path d="M289.312 85.0817C287.467 99.8493 273.982 110.315 259.24 108.471C244.472 106.614 233.993 93.1413 235.85 78.3801C237.695 63.6188 251.174 53.1526 265.948 54.997C280.702 56.8477 291.162 70.3204 289.312 85.0817Z" fill="#BD278F"/>
<path d="M450.334 371.736C442.969 381.444 429.13 383.339 419.435 375.961C409.733 368.596 407.838 354.764 415.215 345.056C422.58 335.366 436.419 333.471 446.115 340.843C455.81 348.214 457.693 362.046 450.334 371.736Z" fill="#BD278F"/>
<path d="M250.618 194.582C250.403 204.151 242.476 211.724 232.92 211.509C223.363 211.295 215.79 203.368 216.004 193.798C216.219 184.242 224.14 176.662 233.697 176.877C243.253 177.092 250.833 185.019 250.618 194.582Z" fill="#BD278F"/>
<path d="M268.878 302.793C268.569 316.525 257.212 327.395 243.493 327.086C229.774 326.776 218.885 315.407 219.194 301.675C219.504 287.962 230.892 277.085 244.611 277.395C258.33 277.704 269.188 289.08 268.878 302.793Z" fill="#BD278F"/>
<path d="M390.601 382.701C390.291 396.426 378.928 407.303 365.209 406.994C351.49 406.684 340.601 395.308 340.91 381.583C341.22 367.851 352.608 356.981 366.327 357.29C380.046 357.6 390.91 368.976 390.601 382.701Z" fill="#BD278F"/>
<path d="M545.344 96.0911C545.136 105.376 537.461 112.728 528.17 112.52C518.891 112.311 511.533 104.618 511.741 95.3331C511.95 86.0481 519.649 78.6896 528.928 78.898C538.22 79.1064 545.559 86.806 545.344 96.0911Z" fill="#BD278F"/>
<path d="M577.501 227.528C577.318 235.537 570.704 241.878 562.701 241.701C554.705 241.525 548.363 234.886 548.54 226.877C548.717 218.881 555.356 212.545 563.352 212.722C571.355 212.899 577.684 219.531 577.501 227.528Z" fill="#BD278F"/>
<path d="M523.604 338.082C523.42 346.085 516.795 352.427 508.792 352.25C500.795 352.073 494.454 345.434 494.631 337.432C494.814 329.435 501.446 323.094 509.442 323.27C517.445 323.454 523.78 330.086 523.604 338.082Z" fill="#BD278F"/>
<path d="M489.243 72.9796C491.725 85.1575 483.899 97.0637 471.727 99.5587C459.543 102.06 447.65 94.2214 445.148 82.0372C442.647 69.8656 450.492 57.9656 462.664 55.458C474.848 52.9694 486.741 60.808 489.243 72.9796Z" fill="#BD278F"/>
<path d="M548.016 192.516C540.74 199.332 529.332 198.971 522.536 191.714C515.727 184.45 516.081 173.049 523.338 166.234C530.602 159.425 542.009 159.798 548.825 167.049C555.634 174.306 555.28 185.701 548.016 192.516Z" fill="#BD278F"/>
<g opacity="0.26">
<path opacity="0.26" d="M385.364 116.979C356.126 131.721 328.915 161.282 321.828 195.428C316.403 221.59 321.317 252.149 338.933 272.847C353.214 289.636 373.938 297.677 394.447 300.469C407.175 302.199 420.66 302.326 433.267 300.083C441.997 298.53 439.047 284.179 430.324 285.733C427.722 286.194 425.069 286.459 422.435 286.68C420.887 286.813 419.953 286.863 419.833 286.87C418.222 286.952 416.605 287.009 414.994 287.034C411.381 287.091 407.768 287.015 404.155 286.787C386.95 285.701 369.1 281.223 355.248 269.455C337.348 254.252 331.252 227.9 334.189 205.004C336.924 183.711 348.824 165.242 363.383 151.106C372.252 142.503 381.006 135.53 391.794 130.086C399.728 126.081 393.323 112.968 385.364 116.979Z" fill="url(#paint7_linear)"/>
</g>
<path d="M234.925 309.11C238.649 308.346 240.947 304.206 240.056 299.862C239.165 295.519 235.424 292.617 231.699 293.381C227.974 294.145 225.677 298.285 226.567 302.629C227.458 306.972 231.2 309.874 234.925 309.11Z" fill="#FFBB78"/>
<path d="M357.677 388.139C361.402 387.375 363.699 383.235 362.809 378.891C361.918 374.548 358.176 371.646 354.451 372.41C350.727 373.174 348.429 377.314 349.32 381.658C350.211 386.001 353.952 388.903 357.677 388.139Z" fill="#FFBB78"/>
<path d="M329.912 275.579C333.637 274.815 335.934 270.675 335.043 266.331C334.153 261.988 330.411 259.086 326.686 259.85C322.961 260.614 320.664 264.754 321.555 269.098C322.445 273.441 326.187 276.343 329.912 275.579Z" fill="#FFBB78"/>
<path d="M425.726 365.984C429.451 365.221 431.748 361.08 430.858 356.737C429.967 352.394 426.225 349.492 422.5 350.256C418.776 351.02 416.478 355.16 417.369 359.503C418.26 363.847 422.001 366.748 425.726 365.984Z" fill="#FFBB78"/>
<path d="M326.028 170.995C329.752 170.231 332.05 166.091 331.159 161.748C330.268 157.404 326.527 154.503 322.802 155.267C319.077 156.031 316.78 160.171 317.67 164.514C318.561 168.857 322.303 171.759 326.028 170.995Z" fill="#FFBB78"/>
<path d="M406.465 152.163C410.189 151.399 412.487 147.259 411.596 142.915C410.705 138.572 406.964 135.67 403.239 136.434C399.514 137.198 397.217 141.338 398.107 145.682C398.998 150.025 402.74 152.927 406.465 152.163Z" fill="#FFBB78"/>
<path d="M227.87 200.497C231.595 199.733 233.893 195.593 233.002 191.25C232.111 186.906 228.37 184.005 224.645 184.769C220.92 185.532 218.622 189.673 219.513 194.016C220.404 198.359 224.146 201.261 227.87 200.497Z" fill="#FFBB78"/>
<path d="M527.559 185.972C529.732 185.526 531.072 183.109 530.552 180.574C530.032 178.038 527.849 176.344 525.675 176.79C523.502 177.235 522.162 179.652 522.682 182.188C523.202 184.723 525.385 186.418 527.559 185.972Z" fill="#FFBB78"/>
<path d="M563.303 228.984C565.477 228.539 566.817 226.122 566.297 223.586C565.777 221.051 563.594 219.356 561.42 219.802C559.247 220.248 557.907 222.665 558.427 225.2C558.947 227.736 561.13 229.43 563.303 228.984Z" fill="#FFBB78"/>
<path d="M505.597 341.509C507.771 341.064 509.111 338.647 508.591 336.111C508.071 333.576 505.888 331.881 503.714 332.327C501.541 332.773 500.201 335.19 500.721 337.725C501.241 340.261 503.424 341.955 505.597 341.509Z" fill="#FFBB78"/>
<path d="M465.036 78.0903C468.761 77.3264 471.058 73.1862 470.168 68.8428C469.277 64.4995 465.535 61.5978 461.81 62.3617C458.086 63.1256 455.788 67.2658 456.679 71.6092C457.57 75.9525 461.311 78.8542 465.036 78.0903Z" fill="#FFBB78"/>
<path d="M524.915 101.72C527.396 101.211 528.926 98.4519 528.332 95.5575C527.738 92.663 525.246 90.7291 522.765 91.2379C520.284 91.7467 518.754 94.5056 519.348 97.4C519.941 100.294 522.434 102.228 524.915 101.72Z" fill="#FFBB78"/>
<path d="M519.055 284.397C521.536 283.888 523.066 281.13 522.473 278.235C521.879 275.341 519.387 273.407 516.906 273.916C514.425 274.424 512.895 277.183 513.488 280.078C514.082 282.972 516.574 284.906 519.055 284.397Z" fill="#FFBB78"/>
<path d="M421.828 227.063C424.309 226.554 425.839 223.796 425.245 220.901C424.651 218.007 422.159 216.073 419.678 216.582C417.197 217.09 415.667 219.849 416.261 222.744C416.854 225.638 419.347 227.572 421.828 227.063Z" fill="#FFBB78"/>
<path d="M389.013 32.8C392.738 32.0361 395.035 27.8959 394.144 23.5526C393.254 19.2092 389.512 16.3075 385.787 17.0714C382.062 17.8353 379.765 21.9755 380.656 26.3189C381.546 30.6622 385.288 33.5639 389.013 32.8Z" fill="#FFBB78"/>
<path d="M251.386 86.7851C255.111 86.0212 257.408 81.881 256.517 77.5377C255.627 73.1943 251.885 70.2926 248.16 71.0565C244.435 71.8204 242.138 75.9607 243.029 80.304C243.919 84.6473 247.661 87.549 251.386 86.7851Z" fill="#FFBB78"/>
<defs>
<linearGradient id="paint0_linear" x1="118.673" y1="355.713" x2="60.2376" y2="328.519" gradientUnits="userSpaceOnUse">
<stop stop-color="#562B75"/>
<stop offset="0.2677" stop-color="#402768"/>
<stop offset="0.7431" stop-color="#1D2154"/>
<stop offset="1" stop-color="#101F4C"/>
</linearGradient>
<linearGradient id="paint1_linear" x1="164.724" y1="294.393" x2="70.3055" y2="497.284" gradientUnits="userSpaceOnUse">
<stop stop-color="#564E75"/>
<stop offset="0.1927" stop-color="#4E466C"/>
<stop offset="1" stop-color="#30294C"/>
</linearGradient>
<linearGradient id="paint2_linear" x1="175.369" y1="366.144" x2="46.9457" y2="306.38" gradientUnits="userSpaceOnUse">
<stop stop-color="#562B75"/>
<stop offset="0.2677" stop-color="#402768"/>
<stop offset="0.7431" stop-color="#1D2154"/>
<stop offset="1" stop-color="#101F4C"/>
</linearGradient>
<linearGradient id="paint3_linear" x1="151.52" y1="347.479" x2="104.222" y2="449.115" gradientUnits="userSpaceOnUse">
<stop stop-color="white"/>
<stop offset="1" stop-color="white" stop-opacity="0"/>
</linearGradient>
<linearGradient id="paint4_linear" x1="425.595" y1="264.878" x2="532.189" y2="243.017" gradientUnits="userSpaceOnUse">
<stop stop-color="#562B75"/>
<stop offset="0.2677" stop-color="#402768"/>
<stop offset="0.7431" stop-color="#1D2154"/>
<stop offset="1" stop-color="#101F4C"/>
</linearGradient>
<linearGradient id="paint5_linear" x1="493.753" y1="292.696" x2="306.062" y2="142.979" gradientUnits="userSpaceOnUse">
<stop stop-color="#BD278F"/>
<stop offset="0.4231" stop-color="#81278F"/>
<stop offset="0.8093" stop-color="#50278F"/>
<stop offset="1" stop-color="#3D278F"/>
</linearGradient>
<linearGradient id="paint6_linear" x1="338.213" y1="307.726" x2="572.473" y2="259.683" gradientUnits="userSpaceOnUse">
<stop stop-color="#562B75"/>
<stop offset="0.2677" stop-color="#402768"/>
<stop offset="0.7431" stop-color="#1D2154"/>
<stop offset="1" stop-color="#101F4C"/>
</linearGradient>
<linearGradient id="paint7_linear" x1="389.323" y1="309.066" x2="351.301" y2="123.67" gradientUnits="userSpaceOnUse">
<stop stop-color="white"/>
<stop offset="1" stop-color="white" stop-opacity="0"/>
</linearGradient>
</defs>
</svg>
